<mxfile host="Electron" agent="Mozilla/5.0 (Windows NT 10.0; Win64; x64) AppleWebKit/537.36 (KHTML, like Gecko) draw.io/28.1.2 Chrome/138.0.7204.243 Electron/37.4.0 Safari/537.36" version="28.1.2">
  <diagram name="Fluxograma EC2" id="0">
    <mxGraphModel dx="2180" dy="2492" grid="1" gridSize="10" guides="1" tooltips="1" connect="1" arrows="1" fold="1" page="1" pageScale="1" pageWidth="827" pageHeight="1169" math="0" shadow="0">
      <root>
        <mxCell id="0" />
        <mxCell id="1" parent="0" />
        <mxCell id="pIB-wprsH1rEKVtyZ3yo-58" style="edgeStyle=orthogonalEdgeStyle;rounded=0;orthogonalLoop=1;jettySize=auto;html=1;flowAnimation=1;" edge="1" parent="1" source="inicio">
          <mxGeometry relative="1" as="geometry">
            <mxPoint x="335" y="30" as="targetPoint" />
          </mxGeometry>
        </mxCell>
        <mxCell id="inicio" value="Início" style="ellipse;whiteSpace=wrap;html=1;" parent="1" vertex="1">
          <mxGeometry x="275" y="-120" width="120" height="50" as="geometry" />
        </mxCell>
        <mxCell id="pIB-wprsH1rEKVtyZ3yo-31" style="edgeStyle=orthogonalEdgeStyle;rounded=0;orthogonalLoop=1;jettySize=auto;html=1;flowAnimation=1;" edge="1" parent="1" source="config">
          <mxGeometry relative="1" as="geometry">
            <mxPoint x="600" y="680" as="targetPoint" />
          </mxGeometry>
        </mxCell>
        <mxCell id="config" value="Configurar Rede, Armazenamento e Chaves" style="rounded=1;whiteSpace=wrap;html=1;" parent="1" vertex="1">
          <mxGeometry x="480" y="560" width="240" height="70" as="geometry" />
        </mxCell>
        <mxCell id="fim" value="Fim" style="ellipse;whiteSpace=wrap;html=1;" parent="1" vertex="1">
          <mxGeometry x="930" y="1070" width="120" height="50" as="geometry" />
        </mxCell>
        <mxCell id="pIB-wprsH1rEKVtyZ3yo-3" style="edgeStyle=orthogonalEdgeStyle;rounded=0;orthogonalLoop=1;jettySize=auto;html=1;flowAnimation=1;" edge="1" parent="1">
          <mxGeometry relative="1" as="geometry">
            <mxPoint x="690" y="89.5" as="targetPoint" />
            <mxPoint x="510" y="89.5" as="sourcePoint" />
          </mxGeometry>
        </mxCell>
        <mxCell id="pIB-wprsH1rEKVtyZ3yo-1" value="AWS Management Console" style="sketch=0;outlineConnect=0;fontColor=#232F3E;gradientColor=none;strokeColor=#ffffff;fillColor=#232F3E;dashed=0;verticalLabelPosition=middle;verticalAlign=bottom;align=center;html=1;whiteSpace=wrap;fontSize=10;fontStyle=1;spacing=3;shape=mxgraph.aws4.productIcon;prIcon=mxgraph.aws4.management_console;" vertex="1" parent="1">
          <mxGeometry x="430" y="30" width="80" height="120" as="geometry" />
        </mxCell>
        <mxCell id="pIB-wprsH1rEKVtyZ3yo-9" style="edgeStyle=orthogonalEdgeStyle;rounded=0;orthogonalLoop=1;jettySize=auto;html=1;flowAnimation=1;" edge="1" parent="1" source="pIB-wprsH1rEKVtyZ3yo-2">
          <mxGeometry relative="1" as="geometry">
            <mxPoint x="734" y="240" as="targetPoint" />
          </mxGeometry>
        </mxCell>
        <mxCell id="pIB-wprsH1rEKVtyZ3yo-2" value="" style="points=[];aspect=fixed;html=1;align=center;shadow=0;dashed=0;fillColor=#FF6A00;strokeColor=none;shape=mxgraph.alibaba_cloud.region;" vertex="1" parent="1">
          <mxGeometry x="710" y="62.84999999999999" width="47.400000000000006" height="54.300000000000004" as="geometry" />
        </mxCell>
        <mxCell id="pIB-wprsH1rEKVtyZ3yo-5" style="edgeStyle=orthogonalEdgeStyle;rounded=0;orthogonalLoop=1;jettySize=auto;html=1;flowAnimation=1;" edge="1" parent="1" source="pIB-wprsH1rEKVtyZ3yo-4">
          <mxGeometry relative="1" as="geometry">
            <mxPoint x="420" y="80" as="targetPoint" />
          </mxGeometry>
        </mxCell>
        <mxCell id="pIB-wprsH1rEKVtyZ3yo-4" value="Actor" style="shape=umlActor;verticalLabelPosition=bottom;verticalAlign=top;html=1;outlineConnect=0;" vertex="1" parent="1">
          <mxGeometry x="320" y="50" width="30" height="60" as="geometry" />
        </mxCell>
        <mxCell id="pIB-wprsH1rEKVtyZ3yo-7" value="Login no Console AWS&lt;div&gt;&amp;nbsp;(Acessar EC2)&lt;/div&gt;" style="text;html=1;align=center;verticalAlign=middle;resizable=0;points=[];autosize=1;strokeColor=none;fillColor=none;" vertex="1" parent="1">
          <mxGeometry x="400" y="-15" width="150" height="40" as="geometry" />
        </mxCell>
        <mxCell id="pIB-wprsH1rEKVtyZ3yo-8" value="Escolher Região" style="text;html=1;align=center;verticalAlign=middle;resizable=0;points=[];autosize=1;strokeColor=none;fillColor=none;" vertex="1" parent="1">
          <mxGeometry x="678.7" y="25" width="110" height="30" as="geometry" />
        </mxCell>
        <mxCell id="pIB-wprsH1rEKVtyZ3yo-15" style="edgeStyle=orthogonalEdgeStyle;rounded=0;orthogonalLoop=1;jettySize=auto;html=1;flowAnimation=1;" edge="1" parent="1" source="pIB-wprsH1rEKVtyZ3yo-10">
          <mxGeometry relative="1" as="geometry">
            <mxPoint x="620" y="314.5" as="targetPoint" />
          </mxGeometry>
        </mxCell>
        <mxCell id="pIB-wprsH1rEKVtyZ3yo-10" value="" style="outlineConnect=0;dashed=0;verticalLabelPosition=bottom;verticalAlign=top;align=center;html=1;shape=mxgraph.aws3.ec2;fillColor=#F58534;gradientColor=none;" vertex="1" parent="1">
          <mxGeometry x="695.45" y="268" width="76.5" height="93" as="geometry" />
        </mxCell>
        <mxCell id="pIB-wprsH1rEKVtyZ3yo-12" value="Criar Instância EC2" style="text;html=1;align=center;verticalAlign=middle;resizable=0;points=[];autosize=1;strokeColor=none;fillColor=none;" vertex="1" parent="1">
          <mxGeometry x="678.7" y="238" width="130" height="30" as="geometry" />
        </mxCell>
        <mxCell id="pIB-wprsH1rEKVtyZ3yo-18" style="edgeStyle=orthogonalEdgeStyle;rounded=0;orthogonalLoop=1;jettySize=auto;html=1;flowAnimation=1;" edge="1" parent="1" source="pIB-wprsH1rEKVtyZ3yo-13">
          <mxGeometry relative="1" as="geometry">
            <mxPoint x="570" y="410" as="targetPoint" />
          </mxGeometry>
        </mxCell>
        <mxCell id="pIB-wprsH1rEKVtyZ3yo-13" value="" style="outlineConnect=0;dashed=0;verticalLabelPosition=bottom;verticalAlign=top;align=center;html=1;shape=mxgraph.aws3.ami;fillColor=#F58534;gradientColor=none;" vertex="1" parent="1">
          <mxGeometry x="540" y="283" width="60" height="63" as="geometry" />
        </mxCell>
        <mxCell id="pIB-wprsH1rEKVtyZ3yo-16" value="Escolher AMI (SO)" style="text;html=1;align=center;verticalAlign=middle;resizable=0;points=[];autosize=1;strokeColor=none;fillColor=none;" vertex="1" parent="1">
          <mxGeometry x="510" y="248" width="120" height="30" as="geometry" />
        </mxCell>
        <mxCell id="pIB-wprsH1rEKVtyZ3yo-29" style="edgeStyle=orthogonalEdgeStyle;rounded=0;orthogonalLoop=1;jettySize=auto;html=1;flowAnimation=1;" edge="1" parent="1" source="pIB-wprsH1rEKVtyZ3yo-17">
          <mxGeometry relative="1" as="geometry">
            <mxPoint x="580" y="550" as="targetPoint" />
          </mxGeometry>
        </mxCell>
        <mxCell id="pIB-wprsH1rEKVtyZ3yo-17" value="" style="outlineConnect=0;dashed=0;verticalLabelPosition=bottom;verticalAlign=top;align=center;html=1;shape=mxgraph.aws3.instances;fillColor=#F58534;gradientColor=none;" vertex="1" parent="1">
          <mxGeometry x="550" y="440" width="60" height="63" as="geometry" />
        </mxCell>
        <mxCell id="pIB-wprsH1rEKVtyZ3yo-19" value="Escolher tipo de Instância&amp;nbsp;" style="text;html=1;align=center;verticalAlign=middle;resizable=0;points=[];autosize=1;strokeColor=none;fillColor=none;" vertex="1" parent="1">
          <mxGeometry x="490" y="410" width="160" height="30" as="geometry" />
        </mxCell>
        <mxCell id="pIB-wprsH1rEKVtyZ3yo-41" style="edgeStyle=orthogonalEdgeStyle;rounded=0;orthogonalLoop=1;jettySize=auto;html=1;flowAnimation=1;" edge="1" parent="1" source="pIB-wprsH1rEKVtyZ3yo-30">
          <mxGeometry relative="1" as="geometry">
            <mxPoint x="1000" y="737.1999999999998" as="targetPoint" />
          </mxGeometry>
        </mxCell>
        <mxCell id="pIB-wprsH1rEKVtyZ3yo-45" style="edgeStyle=orthogonalEdgeStyle;rounded=0;orthogonalLoop=1;jettySize=auto;html=1;flowAnimation=1;" edge="1" parent="1" source="pIB-wprsH1rEKVtyZ3yo-30" target="pIB-wprsH1rEKVtyZ3yo-43">
          <mxGeometry relative="1" as="geometry">
            <mxPoint x="900" y="890" as="targetPoint" />
            <Array as="points">
              <mxPoint x="784" y="790" />
              <mxPoint x="901" y="790" />
              <mxPoint x="901" y="835" />
            </Array>
          </mxGeometry>
        </mxCell>
        <mxCell id="pIB-wprsH1rEKVtyZ3yo-54" style="edgeStyle=orthogonalEdgeStyle;rounded=0;orthogonalLoop=1;jettySize=auto;html=1;flowAnimation=1;" edge="1" parent="1" source="pIB-wprsH1rEKVtyZ3yo-30">
          <mxGeometry relative="1" as="geometry">
            <mxPoint x="784.25" y="1040" as="targetPoint" />
          </mxGeometry>
        </mxCell>
        <mxCell id="pIB-wprsH1rEKVtyZ3yo-30" value="" style="points=[];aspect=fixed;html=1;align=center;shadow=0;dashed=0;fillColor=#FF6A00;strokeColor=none;shape=mxgraph.alibaba_cloud.eais_elastic_accelerated_computing_instances;" vertex="1" parent="1">
          <mxGeometry x="741" y="707.2" width="86.5" height="60" as="geometry" />
        </mxCell>
        <mxCell id="pIB-wprsH1rEKVtyZ3yo-32" value="Lançar instância" style="text;html=1;align=center;verticalAlign=middle;resizable=0;points=[];autosize=1;strokeColor=none;fillColor=none;" vertex="1" parent="1">
          <mxGeometry x="551.75" y="678" width="110" height="30" as="geometry" />
        </mxCell>
        <mxCell id="pIB-wprsH1rEKVtyZ3yo-34" style="edgeStyle=orthogonalEdgeStyle;rounded=0;orthogonalLoop=1;jettySize=auto;html=1;flowAnimation=1;" edge="1" parent="1" source="pIB-wprsH1rEKVtyZ3yo-33">
          <mxGeometry relative="1" as="geometry">
            <mxPoint x="730" y="737.5999999999999" as="targetPoint" />
          </mxGeometry>
        </mxCell>
        <mxCell id="pIB-wprsH1rEKVtyZ3yo-33" value="" style="points=[];aspect=fixed;html=1;align=center;shadow=0;dashed=0;fillColor=#FF6A00;strokeColor=none;shape=mxgraph.alibaba_cloud.eci_elastic_container_instance;" vertex="1" parent="1">
          <mxGeometry x="564.4300000000001" y="708" width="84.64" height="59.2" as="geometry" />
        </mxCell>
        <mxCell id="pIB-wprsH1rEKVtyZ3yo-36" value="Instância em Execução" style="text;html=1;align=center;verticalAlign=middle;resizable=0;points=[];autosize=1;strokeColor=none;fillColor=none;" vertex="1" parent="1">
          <mxGeometry x="720" y="670" width="150" height="30" as="geometry" />
        </mxCell>
        <mxCell id="pIB-wprsH1rEKVtyZ3yo-48" style="edgeStyle=orthogonalEdgeStyle;rounded=0;orthogonalLoop=1;jettySize=auto;html=1;flowAnimation=1;" edge="1" parent="1" source="pIB-wprsH1rEKVtyZ3yo-37" target="pIB-wprsH1rEKVtyZ3yo-47">
          <mxGeometry relative="1" as="geometry" />
        </mxCell>
        <mxCell id="pIB-wprsH1rEKVtyZ3yo-37" value="" style="image;sketch=0;aspect=fixed;html=1;points=[];align=center;fontSize=12;image=img/lib/mscae/Quick_Start_Center.svg;" vertex="1" parent="1">
          <mxGeometry x="940" y="610" width="50" height="50" as="geometry" />
        </mxCell>
        <mxCell id="pIB-wprsH1rEKVtyZ3yo-38" style="edgeStyle=orthogonalEdgeStyle;rounded=0;orthogonalLoop=1;jettySize=auto;html=1;entryX=-0.08;entryY=0.86;entryDx=0;entryDy=0;entryPerimeter=0;flowAnimation=1;" edge="1" parent="1" source="pIB-wprsH1rEKVtyZ3yo-30" target="pIB-wprsH1rEKVtyZ3yo-37">
          <mxGeometry relative="1" as="geometry">
            <Array as="points">
              <mxPoint x="860" y="737" />
              <mxPoint x="860" y="690" />
              <mxPoint x="956" y="690" />
              <mxPoint x="956" y="670" />
              <mxPoint x="936" y="670" />
            </Array>
          </mxGeometry>
        </mxCell>
        <mxCell id="pIB-wprsH1rEKVtyZ3yo-39" value="Start" style="text;html=1;align=center;verticalAlign=middle;resizable=0;points=[];autosize=1;strokeColor=none;fillColor=none;" vertex="1" parent="1">
          <mxGeometry x="940" y="570" width="50" height="30" as="geometry" />
        </mxCell>
        <mxCell id="pIB-wprsH1rEKVtyZ3yo-50" style="edgeStyle=orthogonalEdgeStyle;rounded=0;orthogonalLoop=1;jettySize=auto;html=1;flowAnimation=1;" edge="1" parent="1" source="pIB-wprsH1rEKVtyZ3yo-40">
          <mxGeometry relative="1" as="geometry">
            <mxPoint x="1370" y="737.1999999999998" as="targetPoint" />
          </mxGeometry>
        </mxCell>
        <mxCell id="pIB-wprsH1rEKVtyZ3yo-40" value="" style="verticalLabelPosition=bottom;verticalAlign=top;html=1;shape=mxgraph.basic.x" vertex="1" parent="1">
          <mxGeometry x="1020" y="717.2" width="60" height="40" as="geometry" />
        </mxCell>
        <mxCell id="pIB-wprsH1rEKVtyZ3yo-42" value="Stop" style="text;html=1;align=center;verticalAlign=middle;resizable=0;points=[];autosize=1;strokeColor=none;fillColor=none;" vertex="1" parent="1">
          <mxGeometry x="1020" y="687.2" width="50" height="30" as="geometry" />
        </mxCell>
        <mxCell id="pIB-wprsH1rEKVtyZ3yo-51" style="edgeStyle=orthogonalEdgeStyle;rounded=0;orthogonalLoop=1;jettySize=auto;html=1;entryX=0.5;entryY=0.975;entryDx=0;entryDy=0;entryPerimeter=0;flowAnimation=1;" edge="1" parent="1" target="pIB-wprsH1rEKVtyZ3yo-47">
          <mxGeometry relative="1" as="geometry">
            <mxPoint x="1420" y="817.5" as="targetPoint" />
            <mxPoint x="1038" y="852.5" as="sourcePoint" />
            <Array as="points">
              <mxPoint x="1229" y="853" />
              <mxPoint x="1229" y="819" />
              <mxPoint x="1410" y="819" />
            </Array>
          </mxGeometry>
        </mxCell>
        <mxCell id="pIB-wprsH1rEKVtyZ3yo-43" value="" style="sketch=0;points=[[0,0,0],[0.25,0,0],[0.5,0,0],[0.75,0,0],[1,0,0],[0,1,0],[0.25,1,0],[0.5,1,0],[0.75,1,0],[1,1,0],[0,0.25,0],[0,0.5,0],[0,0.75,0],[1,0.25,0],[1,0.5,0],[1,0.75,0]];outlineConnect=0;fontColor=#232F3E;fillColor=#01A88D;strokeColor=#ffffff;dashed=0;verticalLabelPosition=bottom;verticalAlign=top;align=center;html=1;fontSize=12;fontStyle=0;aspect=fixed;shape=mxgraph.aws4.resourceIcon;resIcon=mxgraph.aws4.monitron;" vertex="1" parent="1">
          <mxGeometry x="960" y="796" width="78" height="78" as="geometry" />
        </mxCell>
        <mxCell id="pIB-wprsH1rEKVtyZ3yo-46" value="Monitorar" style="text;html=1;align=center;verticalAlign=middle;resizable=0;points=[];autosize=1;strokeColor=none;fillColor=none;" vertex="1" parent="1">
          <mxGeometry x="964" y="874" width="70" height="30" as="geometry" />
        </mxCell>
        <mxCell id="pIB-wprsH1rEKVtyZ3yo-47" value="" style="outlineConnect=0;dashed=0;verticalLabelPosition=bottom;verticalAlign=top;align=center;html=1;shape=mxgraph.aws3.db_on_instance;fillColor=#F58534;gradientColor=none;" vertex="1" parent="1">
          <mxGeometry x="1380" y="717.2" width="60" height="64.5" as="geometry" />
        </mxCell>
        <mxCell id="pIB-wprsH1rEKVtyZ3yo-52" value="Alterar tipo de instância, se necessário" style="text;html=1;align=center;verticalAlign=middle;resizable=0;points=[];autosize=1;strokeColor=none;fillColor=none;" vertex="1" parent="1">
          <mxGeometry x="1440" y="737.2" width="230" height="30" as="geometry" />
        </mxCell>
        <mxCell id="pIB-wprsH1rEKVtyZ3yo-57" style="edgeStyle=orthogonalEdgeStyle;rounded=0;orthogonalLoop=1;jettySize=auto;html=1;flowAnimation=1;" edge="1" parent="1" source="pIB-wprsH1rEKVtyZ3yo-55">
          <mxGeometry relative="1" as="geometry">
            <mxPoint x="910" y="1095" as="targetPoint" />
          </mxGeometry>
        </mxCell>
        <mxCell id="pIB-wprsH1rEKVtyZ3yo-55" value="" style="points=[[0.145,0.145,0],[0.5,0,0],[0.855,0.145,0],[1,0.5,0],[0.855,0.855,0],[0.5,1,0],[0.145,0.855,0],[0,0.5,0]];shape=mxgraph.bpmn.event;html=1;verticalLabelPosition=bottom;labelBackgroundColor=#ffffff;verticalAlign=top;align=center;perimeter=ellipsePerimeter;outlineConnect=0;aspect=fixed;outline=end;symbol=terminate;" vertex="1" parent="1">
          <mxGeometry x="759.25" y="1070" width="50" height="50" as="geometry" />
        </mxCell>
        <mxCell id="pIB-wprsH1rEKVtyZ3yo-56" value="Encerrar Instância" style="text;html=1;align=center;verticalAlign=middle;resizable=0;points=[];autosize=1;strokeColor=none;fillColor=none;" vertex="1" parent="1">
          <mxGeometry x="724.25" y="1040" width="120" height="30" as="geometry" />
        </mxCell>
      </root>
    </mxGraphModel>
  </diagram>
</mxfile>
